<svg height="32" viewBox="0 0 32 32" width="32" xmlns="http://www.w3.org/2000/svg"><path d="m19 28h-16a1 1 0 0 1 0-2h16a1 1 0 0 1 0 2z"/><path d="m15 20h-12a1 1 0 0 1 0-2h12a1 1 0 0 1 0 2z"/><path d="m24.5 23.5h4v2h-4z" transform="matrix(.70710678 .70710678 -.70710678 .70710678 25.0858 -11.5624)"/><path d="m28 15h4v2h-4z"/><path d="m24.5 6.5h4v2h-4z" transform="matrix(.70710678 -.70710678 .70710678 .70710678 2.4584 20.935)"/><path d="m17 2h2v4h-2z"/><path d="m7.5 6.5h4v2h-4z" transform="matrix(-.70710678 -.70710678 .70710678 -.70710678 10.9142 19.5208)"/><path d="m18 8a8.0092 8.0092 0 0 0 -8 8h2a6 6 0 1 1 6 6h-11a1 1 0 0 0 0 2h11a8 8 0 0 0 0-16z"/><path d="m0 0h32v32h-32z" fill="none"/></svg>